<?xml version="1.0"?>
<svg width="350" height="250" viewBox="0 0 w h" xmlns="http://www.w3.org/2000/svg" xmlns:svg="http://www.w3.org/2000/svg">
 <g>
  <title>Layer 1</title>
  <rect id="svg_10" stroke="#000000" height="40" width="115" y="21.48718" x="21.269236" stroke-width="2" fill="#5f9ea0"/>
  <text id="svg_11" font-weight="normal" xml:space="preserve" text-anchor="middle" font-family="Sans-serif" font-size="24" y="50.068913" x="77.6875" stroke-linecap="null" stroke-linejoin="null" stroke-dasharray="null" stroke-width="0" stroke="#000000" fill="#000000">Commit</text>
  <rect id="svg_12" stroke="#000000" height="40" width="115" y="101.333326" x="196.858976" stroke-width="2" fill="#ffff99"/>
  <text id="svg_13" xml:space="preserve" text-anchor="middle" font-family="Sans-serif" font-size="24" y="129.833326" x="257.858974" stroke-linecap="null" stroke-linejoin="null" stroke-dasharray="null" stroke-width="0" stroke="#000000" fill="#000000">Tree</text>
  <rect id="svg_14" stroke="#000000" height="40" width="115" y="181.94872" x="196.756407" stroke-width="2" fill="#b22222"/>
  <text id="svg_15" xml:space="preserve" text-anchor="middle" font-family="Sans-serif" font-size="24" y="210.44872" x="256.756405" stroke-linecap="null" stroke-linejoin="null" stroke-dasharray="null" stroke-width="0" stroke="#000000" fill="#000000">Blob</text>
  <rect id="svg_1" stroke="#000000" height="40" width="115" y="101.85897" x="21.884618" stroke-width="2" fill="#ffff99"/>
  <text id="svg_2" xml:space="preserve" text-anchor="middle" font-family="Sans-serif" font-size="24" y="130.35897" x="82.884616" stroke-linecap="null" stroke-linejoin="null" stroke-dasharray="null" stroke-width="0" stroke="#000000" fill="#000000">Tree</text>
  <rect id="svg_3" stroke="#000000" height="40" width="115" y="181.807697" x="21.115382" stroke-width="2" fill="#b22222"/>
  <text id="svg_4" xml:space="preserve" text-anchor="middle" font-family="Sans-serif" font-size="24" y="210.307697" x="81.11538" stroke-linecap="null" stroke-linejoin="null" stroke-dasharray="null" stroke-width="0" stroke="#000000" fill="#000000">Blob</text>
  <rect id="svg_5" stroke="#000000" height="40" width="115" y="21.833341" x="197.16666" stroke-width="2" fill="#5f9ea0"/>
  <text id="svg_6" font-weight="normal" xml:space="preserve" text-anchor="middle" font-family="Sans-serif" font-size="24" y="50.415074" x="253.584924" stroke-linecap="null" stroke-linejoin="null" stroke-dasharray="null" stroke-width="0" stroke="#000000" fill="#000000">Commit</text>
  <path stroke="#000000" transform="rotate(90 79.35708618164061,162.35057067871097) " fill-opacity="0" id="svg_7" d="m78.203888,169.766738l4.022136,-4.58058l-7.776603,0l-7.776586,0l0,-2.835596l0,-2.835599l7.687373,0c4.228049,0 7.687367,-0.143722 7.687367,-0.319382c0,-0.175657 -1.683173,-2.236919 -3.74038,-4.580579l-3.740392,-4.261202l3.457265,0l3.457252,0l5.280008,6.004126l5.280005,6.004123l-5.290134,5.992635l-5.290132,5.992635l-3.639659,0l-3.639668,0l4.022147,-4.580582l0.000002,0.000001z" stroke-linecap="null" stroke-linejoin="null" stroke-dasharray="null" stroke-width="2" fill="#000000"/>
  <path id="svg_9" stroke="#000000" transform="rotate(90 255.33399963378906,163.00000000000003) " fill-opacity="0" d="m254.180134,170.416178l4.022136,-4.58058l-7.776603,0l-7.776586,0l0,-2.835597l0,-2.835599l7.687373,0c4.228049,0 7.687366,-0.143721 7.687366,-0.319382c0,-0.175657 -1.683173,-2.236919 -3.74038,-4.580579l-3.740392,-4.261202l3.457265,0l3.457253,0l5.280007,6.004126l5.280005,6.004123l-5.290133,5.992636l-5.290132,5.992635l-3.639659,0l-3.639668,0l4.022146,-4.580582l0.000002,0.000001z" stroke-linecap="null" stroke-linejoin="null" stroke-dasharray="null" stroke-width="2" fill="#000000"/>
  <path id="svg_16" stroke="#000000" transform="rotate(90 255.33399963378906,83.00000000000003) " fill-opacity="0" d="m254.180134,90.416178l4.022136,-4.58058l-7.776603,0l-7.776586,0l0,-2.835597l0,-2.835599l7.687373,0c4.228049,0 7.687366,-0.143721 7.687366,-0.319382c0,-0.175657 -1.683173,-2.236919 -3.74038,-4.580579l-3.740392,-4.261202l3.457265,0l3.457253,0l5.280007,6.004126l5.280005,6.004123l-5.290133,5.992636l-5.290132,5.992635l-3.639659,0l-3.639668,0l4.022146,-4.580582l0.000002,0.000001z" stroke-linecap="null" stroke-linejoin="null" stroke-dasharray="null" stroke-width="2" fill="#000000"/>
  <path id="svg_17" stroke="#000000" transform="rotate(90 80.00038146972656,82.3333206176758) " fill-opacity="0" d="m78.846802,89.749509l4.022136,-4.58058l-7.776603,0l-7.776586,0l0,-2.835597l0,-2.835599l7.687373,0c4.228049,0 7.687366,-0.143721 7.687366,-0.319382c0,-0.175657 -1.683173,-2.236919 -3.74038,-4.580579l-3.740392,-4.261202l3.457265,0l3.457253,0l5.280007,6.004126l5.280005,6.004123l-5.290133,5.992636l-5.290132,5.992635l-3.639659,0l-3.639668,0l4.022146,-4.580582l0.000002,0.000001z" stroke-linecap="null" stroke-linejoin="null" stroke-dasharray="null" stroke-width="2" fill="#000000"/>
  <path id="svg_18" stroke="#000000" transform="rotate(145.81387329101562 167.33299255371094,157.6666717529297) " fill-opacity="0" d="m166.180137,165.082846l4.022136,-4.58058l-7.776603,0l-7.776586,0l0,-2.835597l0,-2.835599l7.687373,0c4.228049,0 7.687366,-0.143721 7.687366,-0.319382c0,-0.175657 -1.683173,-2.236919 -3.74038,-4.580579l-3.740392,-4.261202l3.457265,0l3.457253,0l5.280007,6.004126l5.280005,6.004123l-5.290133,5.992636l-5.290132,5.992635l-3.639659,0l-3.639668,0l4.022146,-4.580582l0.000002,0.000001z" stroke-linecap="null" stroke-linejoin="null" stroke-dasharray="null" stroke-width="2" fill="#000000"/>
  <path id="svg_19" stroke="#000000" transform="rotate(180 166.54052734375,41.190322875976555) " fill-opacity="0" d="m165.387342,48.606495l4.022136,-4.58058l-7.776603,0l-7.776586,0l0,-2.835597l0,-2.835599l7.687373,0c4.228049,0 7.687366,-0.143721 7.687366,-0.319382c0,-0.175657 -1.683173,-2.236919 -3.74038,-4.580579l-3.740392,-4.261202l3.457265,0l3.457253,0l5.280007,6.004126l5.280005,6.004123l-5.290133,5.992636l-5.290132,5.992635l-3.639659,0l-3.639668,0l4.022146,-4.580582l0.000002,0.000001z" stroke-linecap="null" stroke-linejoin="null" stroke-dasharray="null" stroke-width="2" fill="#000000"/>
 </g>
</svg>