<?xml version="1.0"?>
<svg width="525" height="500" xmlns="http://www.w3.org/2000/svg" xmlns:svg="http://www.w3.org/2000/svg">
 <!-- Created with SVG-edit - http://svg-edit.googlecode.com/ -->
 <g>
  <title>Layer 1</title>
  <path id="svg_1" d="m302.43239,201.477516c-3.881939,-0.652916 -7.922259,-1.082806 -11.202999,-1.199167l-0.578574,-0.019394c0.132522,-0.290903 0.232722,-0.488071 0.265045,-0.517161c0.07111,-0.058181 0.12929,-0.303832 0.135755,-0.543019c0,-0.132522 0.058181,-0.562413 0.148684,-1.13129c0.88887,0.032323 2.068644,0.058181 3.355082,0.067877c4.967977,0.038787 10.165445,0.439587 13.730623,1.069877c2.123592,0.374942 2.824992,0.362013 1.257348,-0.019394c-1.587038,-0.384638 -6.293202,-0.950283 -10.042619,-1.195935c-2.517927,-0.17131 -6.128357,-0.235955 -8.255181,-0.2004c0.061413,-0.368477 0.132522,-0.778974 0.206864,-1.199167c0.3006,-1.625825 0.4008,-3.261346 0.407264,-6.516228c0.006465,-5.048784 -0.265045,-6.438654 -1.910263,-9.777574c-0.669077,-1.364012 -1.425425,-2.52116 -2.340153,-3.56841c0.798367,-2.356314 0.778974,-6.005531 -0.048484,-9.205465c-0.682006,-2.624592 -0.921193,-2.792669 -3.300133,-2.288437c-2.016928,0.42989 -3.633056,1.014928 -5.704932,2.058947c-0.979374,0.494535 -2.330456,1.263812 -3.30983,1.868244c-2.553482,-0.898567 -5.194235,-1.493302 -8.012762,-1.813296c-2.857314,-0.323226 -9.861613,-0.142219 -12.347217,0.316761c-2.430656,0.449284 -4.618894,0.998767 -6.600266,1.651683c-0.98907,-0.610896 -2.424192,-1.435122 -3.448817,-1.952283c-2.081573,-1.047251 -3.697701,-1.629057 -5.721093,-2.058947c-2.372476,-0.507464 -2.618127,-0.336155 -3.296901,2.288437c-0.840387,3.241953 -0.846851,6.952582 -0.016161,9.302432c0.096968,0.268277 0.155148,0.45898 0.177774,0.607664c-3.368011,4.24072 -4.466978,8.985671 -3.736488,15.608563c0.190703,1.726025 0.484838,3.30983 0.895335,4.761113c-2.14945,-0.012929 -5.207164,0.064645 -7.414795,0.206864c-3.755881,0.248884 -8.462046,0.808064 -10.049083,1.192702c-1.564412,0.381406 -0.869477,0.394335 1.257348,0.022626c3.565178,-0.627058 8.765878,-1.034322 13.730623,-1.069877c0.937354,-0.003232 1.813296,-0.022626 2.566411,-0.042019c0.226258,0.766045 0.484838,1.496534 0.778974,2.191469l-0.022626,0.003232c-3.28074,0.113129 -7.317827,0.543019 -11.199766,1.195935c-2.912262,0.488071 -7.211163,1.464212 -7.712162,1.745418c-0.526858,0.294135 -0.096968,0.22949 2.159147,-0.342619c4.114662,-1.040786 9.464045,-1.839154 16.09017,-2.395102l0.740187,-0.064645c1.422193,3.303365 3.613662,5.824525 6.710163,7.789737c1.894102,1.205631 4.92919,2.443585 6.458047,2.637521c0.420193,0.051716 1.641986,0.303832 2.715095,0.555948c1.076341,0.252116 3.18054,0.63029 4.673842,0.846851l0.035555,0c-0.02909,0.019394 -0.054948,0.032323 -0.080806,0.051716c-1.810063,0.940586 -2.986604,2.404798 -3.778507,4.709397c-0.355548,0.106664 -0.798367,0.252116 -1.276741,0.416961c-1.709863,0.581806 -2.375708,0.7014 -4.108197,0.714329c-1.797134,0.012929 -2.223792,-0.064645 -3.296901,-0.568877c-1.56118,-0.727258 -3.015695,-2.065411 -3.985371,-3.662146c-1.61936,-2.669843 -4.418494,-4.557481 -6.752182,-4.557481c-1.994302,0 -2.372476,0.808064 -0.93089,1.987837c2.172076,1.774508 3.794668,3.584572 4.460513,4.967977c0.374942,0.775741 0.950283,1.974908 1.283206,2.663379c0.352316,0.733722 1.105431,1.729257 1.822992,2.417727c1.687238,1.609663 3.316294,2.37894 5.746951,2.740953c1.629057,0.239187 2.029857,0.239187 3.953049,-0.006465c0.927657,-0.113129 1.709863,-0.245651 2.411263,-0.410496c0,0.78867 0,1.696934 0,2.763579c0,5.708164 -0.067877,7.544085 -0.294135,8.08064c-0.426658,1.021393 -1.383405,2.071876 -2.314295,2.543785c-0.927657,0.471909 -1.215328,0.992303 -0.824225,1.470676c0.216561,0.25858 0.633522,0.303832 2.033089,0.213329c2.656914,-0.164845 4.534855,-1.147451 5.491603,-2.87994c0.307064,-0.555948 0.378174,-1.674309 0.475142,-7.492369c0.103432,-6.312596 0.148684,-6.92026 0.55918,-7.822059c0.248884,-0.536554 0.607664,-1.118361 0.808064,-1.276741c0.336155,-0.277974 0.35878,0.271509 0.35878,7.822059c-0.003232,8.332756 -0.087271,9.337987 -0.921193,10.941186c-0.187471,0.365245 -0.543019,0.840387 -0.791903,1.066644c-0.436355,0.397567 -0.620593,1.415728 -0.316761,1.722792c0.501,0.497767 3.012462,-0.284439 4.382939,-1.364012c2.333689,-1.84885 2.611663,-3.377707 2.631056,-14.419093l0.009697,-6.477441l0.707864,0.067877l0.707864,0.064645l0.116361,8.471743c0.132522,9.538387 0.151916,9.677374 1.774508,11.51976c0.921193,1.040786 1.84885,1.616128 3.358314,2.065411c2.02016,0.607664 2.627824,-0.32969 1.270277,-1.955515c-1.477141,-1.768044 -1.548251,-2.443585 -1.467444,-12.90963c0.054948,-6.710163 0.054948,-6.710163 0.488071,-6.31906c0.911496,0.827457 1.086038,2.185005 1.086038,8.478207c0,7.815595 0.223026,8.559013 2.983372,9.923025c1.28967,0.63029 1.651683,0.707864 3.303365,0.714329c1.758347,0.006465 1.865012,-0.019394 1.929657,-0.478374c0.054948,-0.371709 -0.161613,-0.623825 -0.982606,-1.124825c-1.076341,-0.662612 -1.822992,-1.509463 -2.291669,-2.576108c-0.177774,-0.410496 -0.297368,-3.099733 -0.378174,-8.636588c-0.116361,-7.734788 -0.142219,-8.087104 -0.623825,-9.2992c-0.649683,-1.629057 -1.641986,-2.915495 -2.899333,-3.76881c-0.326458,-0.213329 -0.652916,-0.391103 -1.076341,-0.523625c0.520393,-0.051716 1.024625,-0.106664 1.512696,-0.177774c5.081106,-0.675541 7.767111,-1.237954 9.923025,-2.071876c4.560713,-1.755115 7.644285,-4.67061 9.315361,-8.804665c0.148684,-0.368477 0.297368,-0.717561 0.423426,-0.998767l1.286438,0.106664c6.629357,0.55918 11.97874,1.357547 16.093402,2.401566c2.256115,0.572109 2.686005,0.639987 2.159147,0.339387c-0.491303,-0.274742 -4.790203,-1.247651 -7.699233,-1.735721zm-19.438787,-0.1002c-0.753116,1.654915 -2.854082,3.781739 -4.551016,4.615661c-1.674309,0.827457 -4.2989,1.457747 -7.272576,1.758347c-2.033089,0.206864 -13.371842,0.268277 -15.243318,0.084039c-6.196234,-0.607664 -9.667677,-1.800366 -12.227624,-4.189004c-2.424192,-2.269044 -3.555481,-5.349383 -3.358314,-9.140819c0.126058,-2.372476 0.698167,-3.862546 2.194702,-5.672609c1.36078,-1.64845 2.792669,-2.666611 4.479907,-3.183772c1.412496,-0.433122 5.746951,-0.471909 11.574708,-0.096968c2.576108,0.164845 4.706164,0.164845 7.27904,0c6.096034,-0.384638 10.165445,-0.342619 11.668444,0.122826c2.362779,0.73049 4.515461,2.695701 5.808364,5.313829c0.581806,1.170077 0.694935,1.667844 0.778974,3.474675c0.116361,2.488837 -0.313529,5.132822 -1.13129,6.913795zm-30.738753,-10.685838c-3.468211,-0.607664 -5.449583,5.32999 -2.789437,8.361846c1.263812,1.438354 2.385405,1.674309 3.788204,0.801599c1.299367,-0.811296 2.003999,-2.327224 2.003999,-4.292436c0,-2.621359 -1.192702,-4.547784 -3.002766,-4.87101zm21.051682,0.355548c-3.468211,-0.607664 -5.452816,5.323525 -2.792669,8.358614c1.267044,1.438354 2.385405,1.677541 3.791436,0.798367c1.296135,-0.808064 2.003999,-2.327224 2.003999,-4.292436c0,-2.611663 -1.192702,-4.544552 -3.002766,-4.864545zm-9.32829,11.674908c-0.074342,0.239187 -0.436355,0.594735 -0.801599,0.785438c-0.924425,0.475142 -1.59027,0.310297 -2.566411,-0.578574c-0.604432,-0.546251 -0.879174,-0.833922 -1.063412,-0.261813c-0.17131,0.53009 0.905032,1.593502 1.735721,1.91996c0.762812,0.303832 1.309064,0.313529 2.136521,-0.032323c0.820993,-0.342619 1.538554,-1.263812 1.538554,-1.861779c0,-0.555948 -0.798367,-0.53009 -0.979374,0.02909zm-1.024625,-1.858547c0.526858,-0.465445 0.646451,-1.422193 0.142219,-1.929657s-1.528857,-0.42989 -1.929657,0.138987c-0.465445,0.665845 -0.216561,1.173309 0.116361,1.713096c0.517161,0.4008 1.212096,0.481606 1.671076,0.077574z" fill-opacity="0" stroke-linecap="null" stroke-linejoin="null" stroke-dasharray="null" stroke-width="2" stroke="#000000" fill="#000000"/>
  <path id="svg_3" d="m453.085253,425.937653c0,0 3.014112,-12.46117 0,-16.682347c-3.017662,-4.221177 -4.221177,-7.032929 -10.856483,-9.045887s-4.217627,-1.611786 -9.042337,-1.405875c-4.824709,0.202361 -8.847075,2.811751 -8.847075,4.217626c0,0 -3.014112,0.202361 -4.217627,1.409426c-1.207065,1.207065 -3.216473,6.830567 -3.216473,8.239993s1.004704,10.856484 2.009408,12.865892l-1.196414,0.401172c-1.004704,11.655276 4.018816,13.064702 4.018816,13.064702c1.807047,10.856484 3.617644,6.234135 3.617644,9.045886s-1.810597,1.810598 -1.810597,1.810598s-1.604686,4.419987 -5.623502,6.028224c-4.018816,1.604686 -26.328216,10.245851 -28.142363,12.056448c-1.814148,1.814148 -1.608237,10.252951 -1.608237,10.252951l95.666994,0c0,0 0.209461,-8.438803 -1.604687,-10.252951c-1.817697,-1.814148 -24.127097,-10.451762 -28.145913,-12.056448c-4.018816,-1.608237 -5.623502,-6.028224 -5.623502,-6.028224s-1.810598,1.001154 -1.810598,-1.810598s1.810598,1.810598 3.621195,-9.045886c0,0 5.01997,-1.409426 4.018816,-13.064702l-1.207065,0z" fill-opacity="0" stroke-linecap="null" stroke-linejoin="null" stroke-dasharray="null" stroke-width="5" stroke="#000000" fill="#000000"/>
  <path id="svg_4" d="m303.528406,84.952264c2.208446,0.001797 4.318059,0.384546 6.316262,1.024259l-1.581312,2.734951l11.225517,0l-2.806828,-4.862534l-2.805031,-4.85894l-1.477089,2.560647c-2.767296,-1.01168 -5.750225,-1.577718 -8.869721,-1.577718c-14.359389,0 -25.998203,11.638814 -25.998203,25.998203c0,5.960467 2.026954,11.435759 5.39982,15.822102l3.953279,-3.03504c-2.727763,-3.545373 -4.368374,-7.969452 -4.377359,-12.785265c0.019766,-11.610063 9.412399,-21.002695 21.020665,-21.020665zm20.60018,5.202156l-3.953279,3.036837c2.727763,3.543576 4.368374,7.965858 4.375562,12.783468c-0.019766,11.608266 -9.412399,21.000899 -21.020665,21.020665c-2.057502,-0.003594 -4.025157,-0.337826 -5.901168,-0.896676l1.487871,-2.573226l-11.225517,0l2.805031,4.85894l2.806828,4.864331l1.565139,-2.715184c2.654088,0.92363 5.495058,1.439353 8.461815,1.44115c14.361186,-0.003594 25.998203,-11.642408 26.001797,-26.001797c-0.003594,-5.960467 -2.032345,-11.433962 -5.403414,-15.818509z" fill-opacity="0" stroke-linecap="null" stroke-linejoin="null" stroke-dasharray="null" stroke-width="3" stroke="#000000" fill="#000000"/>
  <path id="svg_5" d="m136.585881,291.483896c0.056716,-0.58209 0.089552,-1.170149 0.089552,-1.764179c0,-10.304478 -8.352239,-18.656717 -18.656717,-18.656717c-7.997015,0 -14.8,5.041791 -17.453732,12.116418c-1.758209,-1.928358 -4.265672,-3.161194 -7.080597,-3.161194c-5.307463,0 -9.608955,4.301493 -9.608955,9.608955c0,0.626866 0.068657,1.238806 0.185075,1.829851c-7.080597,1.167164 -12.498508,7.271642 -12.498508,14.680597c0,8.244776 6.683582,14.925373 14.925373,14.925373l47.38806,0c8.244776,0 14.925373,-6.680597 14.925373,-14.925373c0.002985,-7.316418 -5.268657,-13.37612 -12.214926,-14.653732z" stroke-linecap="null" stroke-linejoin="null" stroke-dasharray="null" stroke-width="3" stroke="#000000" fill="#55dcf4"/>
  <path id="svg_6" d="m434.404485,297.920892c0.056717,-0.58209 0.089553,-1.17015 0.089553,-1.764179c0,-10.304478 -8.352239,-18.656717 -18.656717,-18.656717c-7.997015,0 -14.8,5.041791 -17.453732,12.116418c-1.758209,-1.928358 -4.265671,-3.161194 -7.080597,-3.161194c-5.307462,0 -9.608955,4.301493 -9.608955,9.608955c0,0.626866 0.068657,1.238806 0.185075,1.829851c-7.080597,1.167164 -12.498508,7.271642 -12.498508,14.680597c0,8.244777 6.683582,14.925374 14.925373,14.925374l47.388061,0c8.244776,0 14.925373,-6.680597 14.925373,-14.925374c0.002985,-7.316418 -5.268657,-13.376119 -12.214926,-14.653731z" stroke-linecap="null" stroke-linejoin="null" stroke-dasharray="null" stroke-width="3" stroke="#000000" fill="#55dcf4"/>
  <path id="svg_7" d="m281.404485,37.920892c0.056717,-0.58209 0.089553,-1.17015 0.089553,-1.764179c0,-10.304478 -8.352239,-18.656717 -18.656717,-18.656717c-7.997015,0 -14.8,5.041791 -17.453732,12.116418c-1.758209,-1.928358 -4.265671,-3.161194 -7.080597,-3.161194c-5.307462,0 -9.608955,4.301493 -9.608955,9.608955c0,0.626866 0.068657,1.238806 0.185075,1.829851c-7.080597,1.167164 -12.498508,7.271642 -12.498508,14.680597c0,8.244777 6.683582,14.925374 14.925373,14.925374l47.388061,0c8.244776,0 14.925373,-6.680597 14.925373,-14.925374c0.002985,-7.316418 -5.268657,-13.376119 -12.214926,-14.653731z" stroke-linecap="null" stroke-linejoin="null" stroke-dasharray="null" stroke-width="3" stroke="#000000" fill="#55dcf4"/>
  <path transform="rotate(-77.79833221435547 106.33745574951178,355.10070800781256) " id="svg_8" d="m104.519144,365.403679l6.341937,-6.363594l-12.261826,0l-12.261799,0l0,-3.939366l0,-3.93937l12.121132,0c6.666613,0 12.121123,-0.199666 12.121123,-0.443703c0,-0.244032 -2.653958,-3.10765 -5.897677,-6.363592l-5.897696,-5.919896l5.451273,0l5.451253,0l8.325298,8.341262l8.325294,8.341258l-8.341264,8.325298l-8.341262,8.325298l-5.738865,0l-5.738878,0l6.341955,-6.363596l0.000003,0.000001z" fill-opacity="0" stroke-linecap="null" stroke-linejoin="null" stroke-dasharray="null" stroke-width="3" stroke="#000000" fill="#000000"/>
  <path transform="rotate(-28.300756454467773 168.9999999999999,235.49999999999997) " id="svg_11" d="m167.181689,245.802963l6.341938,-6.363593l-12.261827,0l-12.261799,0l0,-3.939366l0,-3.93937l12.121132,0c6.666613,0 12.121122,-0.199666 12.121122,-0.443703c0,-0.244032 -2.653958,-3.107651 -5.897677,-6.363593l-5.897696,-5.919895l5.451274,0l5.451253,0l8.325298,8.341261l8.325294,8.341258l-8.341265,8.325298l-8.341261,8.325298l-5.738865,0l-5.738878,0l6.341955,-6.363596l0.000002,0.000001z" fill-opacity="0" stroke-linecap="null" stroke-linejoin="null" stroke-dasharray="null" stroke-width="3" stroke="#000000" fill="#000000"/>
  <path id="svg_13" transform="rotate(-135.2674102783203 351.93005371093744,248.35958862304685) " d="m350.111743,258.662552l6.341938,-6.363593l-12.261827,0l-12.261799,0l0,-3.939366l0,-3.93937l12.121132,0c6.666613,0 12.121122,-0.199666 12.121122,-0.443703c0,-0.244032 -2.653958,-3.107651 -5.897677,-6.363593l-5.897696,-5.919895l5.451274,0l5.451253,0l8.325298,8.341261l8.325294,8.341258l-8.341265,8.325298l-8.341261,8.325298l-5.738865,0l-5.738878,0l6.341955,-6.363596l0.000002,0.000001z" fill-opacity="0" stroke-linecap="null" stroke-linejoin="null" stroke-dasharray="null" stroke-width="3" stroke="#000000" fill="#000000"/>
  <path id="svg_14" transform="rotate(-102.42184448242188 429.44760131835943,360.08203125) " d="m427.629282,370.384987l6.341938,-6.363593l-12.261827,0l-12.261799,0l0,-3.939366l0,-3.93937l12.121132,0c6.666613,0 12.121122,-0.199666 12.121122,-0.443703c0,-0.244032 -2.653958,-3.107651 -5.897677,-6.363593l-5.897696,-5.919895l5.451274,0l5.451253,0l8.325298,8.341261l8.325294,8.341258l-8.341265,8.325298l-8.341261,8.325298l-5.738865,0l-5.738878,0l6.341955,-6.363596l0.000002,0.000001z" fill-opacity="0" stroke-linecap="null" stroke-linejoin="null" stroke-dasharray="null" stroke-width="3" stroke="#000000" fill="#000000"/>
  <path id="svg_15" d="m117.085266,422.937653c0,0 3.014112,-12.46117 0,-16.682347c-3.017662,-4.221177 -4.221177,-7.032929 -10.856483,-9.045887s-4.217627,-1.611786 -9.042337,-1.405875c-4.824709,0.202361 -8.847075,2.811751 -8.847075,4.217626c0,0 -3.014112,0.202361 -4.217627,1.409426c-1.207065,1.207065 -3.216473,6.830567 -3.216473,8.239993s1.004704,10.856484 2.009408,12.865892l-1.196414,0.401172c-1.004704,11.655276 4.018816,13.064702 4.018816,13.064702c1.807047,10.856484 3.617644,6.234135 3.617644,9.045886s-1.810597,1.810598 -1.810597,1.810598s-1.604686,4.419987 -5.623502,6.028224c-4.018816,1.604686 -26.328216,10.245851 -28.142363,12.056448c-1.814148,1.814148 -1.608237,10.252951 -1.608237,10.252951l95.666994,0c0,0 0.209461,-8.438803 -1.604687,-10.252951c-1.817697,-1.814148 -24.127097,-10.451762 -28.145913,-12.056448c-4.018816,-1.608237 -5.623502,-6.028224 -5.623502,-6.028224s-1.810598,1.001154 -1.810598,-1.810598s1.810598,1.810598 3.621195,-9.045886c0,0 5.01997,-1.409426 4.018816,-13.064702l-1.207065,0z" fill-opacity="0" stroke-linecap="null" stroke-linejoin="null" stroke-dasharray="null" stroke-width="5" stroke="#000000" fill="#000000"/>
 </g>
</svg>